<mxfile host="app.diagrams.net" modified="2022-05-26T10:29:43.084Z" agent="5.0 (Windows NT 10.0; WOW64) AppleWebKit/537.36 (KHTML, like Gecko) SFive/80.0 Chrome/80.0.3987.123 Safari/537.36" etag="TJs0urv9-JhM8b-MBL0f" version="18.1.2" type="github">
  <diagram id="6a731a19-8d31-9384-78a2-239565b7b9f0" name="Page-1">
    <mxGraphModel dx="862" dy="481" grid="1" gridSize="10" guides="1" tooltips="1" connect="1" arrows="1" fold="1" page="1" pageScale="1" pageWidth="1169" pageHeight="827" background="none" math="0" shadow="0">
      <root>
        <mxCell id="0" />
        <mxCell id="1" parent="0" />
        <mxCell id="40" value="end" style="shape=mxgraph.flowchart.terminator;strokeWidth=2;gradientColor=none;gradientDirection=north;fontStyle=0;html=1;" parent="1" vertex="1">
          <mxGeometry x="260" y="1910" width="120" height="30" as="geometry" />
        </mxCell>
        <mxCell id="K5H5-eABZaBgbsOQmtmj-60" style="edgeStyle=orthogonalEdgeStyle;rounded=0;orthogonalLoop=1;jettySize=auto;html=1;entryX=0;entryY=0.5;entryDx=0;entryDy=0;" edge="1" parent="1" source="K5H5-eABZaBgbsOQmtmj-55" target="K5H5-eABZaBgbsOQmtmj-59">
          <mxGeometry relative="1" as="geometry" />
        </mxCell>
        <mxCell id="K5H5-eABZaBgbsOQmtmj-55" value="" style="shape=waypoint;sketch=0;fillStyle=solid;size=6;pointerEvents=1;points=[];fillColor=none;resizable=0;rotatable=0;perimeter=centerPerimeter;snapToPoint=1;strokeWidth=18;" vertex="1" parent="1">
          <mxGeometry x="50" y="30" width="40" height="40" as="geometry" />
        </mxCell>
        <mxCell id="K5H5-eABZaBgbsOQmtmj-62" value="Call api" style="edgeStyle=orthogonalEdgeStyle;rounded=0;orthogonalLoop=1;jettySize=auto;html=1;entryX=0.5;entryY=0;entryDx=0;entryDy=0;fontFamily=Helvetica;" edge="1" parent="1" source="K5H5-eABZaBgbsOQmtmj-59" target="K5H5-eABZaBgbsOQmtmj-61">
          <mxGeometry relative="1" as="geometry" />
        </mxCell>
        <mxCell id="K5H5-eABZaBgbsOQmtmj-59" value="API Config" style="rounded=1;whiteSpace=wrap;html=1;strokeWidth=1;" vertex="1" parent="1">
          <mxGeometry x="190" y="20" width="120" height="60" as="geometry" />
        </mxCell>
        <mxCell id="K5H5-eABZaBgbsOQmtmj-65" value="No" style="edgeStyle=orthogonalEdgeStyle;rounded=0;orthogonalLoop=1;jettySize=auto;html=1;entryX=1;entryY=0.5;entryDx=0;entryDy=0;fontFamily=Helvetica;" edge="1" parent="1" source="K5H5-eABZaBgbsOQmtmj-61" target="K5H5-eABZaBgbsOQmtmj-64">
          <mxGeometry relative="1" as="geometry" />
        </mxCell>
        <mxCell id="K5H5-eABZaBgbsOQmtmj-67" value="Yes" style="edgeStyle=orthogonalEdgeStyle;rounded=0;orthogonalLoop=1;jettySize=auto;html=1;entryX=0;entryY=0.5;entryDx=0;entryDy=0;fontFamily=Helvetica;" edge="1" parent="1" source="K5H5-eABZaBgbsOQmtmj-61" target="K5H5-eABZaBgbsOQmtmj-66">
          <mxGeometry relative="1" as="geometry" />
        </mxCell>
        <mxCell id="K5H5-eABZaBgbsOQmtmj-61" value="" style="rhombus;whiteSpace=wrap;html=1;strokeWidth=1;" vertex="1" parent="1">
          <mxGeometry x="215" y="160" width="70" height="60" as="geometry" />
        </mxCell>
        <mxCell id="K5H5-eABZaBgbsOQmtmj-64" value="Loading data false !" style="rounded=1;whiteSpace=wrap;html=1;fontFamily=Helvetica;strokeWidth=1;" vertex="1" parent="1">
          <mxGeometry x="10" y="170" width="120" height="40" as="geometry" />
        </mxCell>
        <mxCell id="K5H5-eABZaBgbsOQmtmj-74" style="edgeStyle=orthogonalEdgeStyle;rounded=0;orthogonalLoop=1;jettySize=auto;html=1;fontFamily=Helvetica;fontSize=16;" edge="1" parent="1" source="K5H5-eABZaBgbsOQmtmj-66">
          <mxGeometry relative="1" as="geometry">
            <mxPoint x="460" y="186" as="targetPoint" />
            <Array as="points">
              <mxPoint x="460" y="150" />
              <mxPoint x="460" y="150" />
            </Array>
          </mxGeometry>
        </mxCell>
        <mxCell id="K5H5-eABZaBgbsOQmtmj-66" value="Show list dynamic api" style="rounded=1;whiteSpace=wrap;html=1;fontFamily=Helvetica;strokeWidth=1;" vertex="1" parent="1">
          <mxGeometry x="400" y="80" width="120" height="40" as="geometry" />
        </mxCell>
        <mxCell id="K5H5-eABZaBgbsOQmtmj-75" value="Create API Config" style="rounded=1;whiteSpace=wrap;html=1;fontFamily=Helvetica;fontSize=12;strokeWidth=1;" vertex="1" parent="1">
          <mxGeometry x="250" y="260" width="120" height="40" as="geometry" />
        </mxCell>
        <mxCell id="K5H5-eABZaBgbsOQmtmj-76" value="Create API Config" style="rounded=1;whiteSpace=wrap;html=1;fontFamily=Helvetica;fontSize=12;strokeWidth=1;" vertex="1" parent="1">
          <mxGeometry x="400" y="260" width="120" height="40" as="geometry" />
        </mxCell>
        <mxCell id="K5H5-eABZaBgbsOQmtmj-77" value="Create API Config" style="rounded=1;whiteSpace=wrap;html=1;fontFamily=Helvetica;fontSize=12;strokeWidth=1;" vertex="1" parent="1">
          <mxGeometry x="540" y="260" width="120" height="40" as="geometry" />
        </mxCell>
        <mxCell id="K5H5-eABZaBgbsOQmtmj-91" style="edgeStyle=orthogonalEdgeStyle;rounded=0;orthogonalLoop=1;jettySize=auto;html=1;entryX=0.495;entryY=-0.058;entryDx=0;entryDy=0;entryPerimeter=0;fontFamily=Helvetica;fontSize=12;" edge="1" parent="1" source="K5H5-eABZaBgbsOQmtmj-79" target="K5H5-eABZaBgbsOQmtmj-76">
          <mxGeometry relative="1" as="geometry" />
        </mxCell>
        <mxCell id="K5H5-eABZaBgbsOQmtmj-79" value="" style="line;strokeWidth=4;html=1;perimeter=backbonePerimeter;points=[];outlineConnect=0;fontFamily=Helvetica;fontSize=12;" vertex="1" parent="1">
          <mxGeometry x="400" y="185" width="120" height="10" as="geometry" />
        </mxCell>
        <mxCell id="K5H5-eABZaBgbsOQmtmj-86" value="" style="edgeStyle=elbowEdgeStyle;elbow=vertical;endArrow=classic;html=1;rounded=0;fontFamily=Helvetica;fontSize=12;entryX=0.5;entryY=0;entryDx=0;entryDy=0;" edge="1" parent="1" target="K5H5-eABZaBgbsOQmtmj-75">
          <mxGeometry width="50" height="50" relative="1" as="geometry">
            <mxPoint x="430" y="190" as="sourcePoint" />
            <mxPoint x="380" y="195" as="targetPoint" />
          </mxGeometry>
        </mxCell>
        <mxCell id="K5H5-eABZaBgbsOQmtmj-90" value="" style="edgeStyle=elbowEdgeStyle;elbow=vertical;endArrow=classic;html=1;rounded=0;fontFamily=Helvetica;fontSize=12;entryX=0.5;entryY=0;entryDx=0;entryDy=0;" edge="1" parent="1" target="K5H5-eABZaBgbsOQmtmj-77">
          <mxGeometry width="50" height="50" relative="1" as="geometry">
            <mxPoint x="490" y="190" as="sourcePoint" />
            <mxPoint x="540" y="185" as="targetPoint" />
          </mxGeometry>
        </mxCell>
      </root>
    </mxGraphModel>
  </diagram>
</mxfile>
